<?xml version="1.0" encoding="UTF-8" standalone="no"?>
<!-- Created with Inkscape (http://www.inkscape.org/) -->

<svg
   width="500.00003"
   height="500.00003"
   viewBox="0 0 132.29168 132.29168"
   version="1.1"
   id="svg5"
   xmlns="http://www.w3.org/2000/svg"
   xmlns:svg="http://www.w3.org/2000/svg">
  <defs
     id="defs2">
    <marker
       style="overflow:visible"
       id="Arrow1Lstart"
       refX="0.0"
       refY="0.0"
       orient="auto">
      <path
         transform="scale(0.8) translate(12.5,0)"
         style="fill-rule:evenodd;fill:context-stroke;stroke:context-stroke;stroke-width:1pt"
         d="M 0.0,0.0 L 5.0,-5.0 L -12.5,0.0 L 5.0,5.0 L 0.0,0.0 z "
         id="path1165" />
    </marker>
  </defs>
  <g
     id="layer13">
    <g
       id="g3246"
       transform="rotate(153.59545,57.348811,99.459294)">
      <path
         id="path2041"
         style="fill:#2a394a;stroke-width:2.054;stroke-dasharray:8.21599, 2.054;stroke-dashoffset:2.054"
         d="m 125.0625,288.35547 -15.91016,12.00781 -5.03125,-6.19336 -13.546871,22.0625 -19.177735,-17.38672 c -9.845589,17.90554 -19.25764,36.3708 -23.320312,46.40039 H 93.103516 L 110.75,333.48242 l 5.76367,3.29297 6.17578,-3.70508 17.84375,12.17578 H 154.25 c -4.8804,-12.03097 -17.45054,-36.18371 -29.1875,-56.89062 z"
         transform="scale(0.26458333)" />
      <path
         id="path2865"
         style="fill:#2a394a;stroke-width:0.699037;stroke-dasharray:2.79614, 0.699037;stroke-dashoffset:0.699037"
         d="m 32.205787,73.759321 c 0.235722,0.408839 0.434776,0.749573 0.690396,1.196311 0.608628,1.063675 1.266539,2.223474 1.938382,3.425113 0.671843,1.201637 1.357908,2.444959 2.023134,3.676261 0.332613,0.615651 0.659852,1.228651 0.977717,1.831412 0.317865,0.602763 0.625967,1.195652 0.920359,1.771986 0.294388,0.576333 0.574974,1.13588 0.837157,1.672248 0.262184,0.536369 0.506354,1.04934 0.727604,1.532208 0.22125,0.482864 0.41959,0.935511 0.591177,1.351338 0.08579,0.207912 0.164939,0.406696 0.236678,0.595312 0.07174,0.188616 0.136157,0.367226 0.192754,0.53485 h 15.247649 l -8.70903,-15.084867 -5.874059,-2.423107 -1.8433,2.662886 -5.805847,-6.467305 z" />
      <path
         id="path1305"
         style="fill:#168a94;stroke-width:0.699037;stroke-dasharray:2.79614, 0.699037;stroke-dashoffset:0.699037"
         d="m 37.197212,64.056037 -2.840654,4.919596 5.805848,6.467305 1.843299,-2.662885 5.874059,2.423107 -5.024498,-8.702829 z" />
      <path
         id="path1621"
         style="fill:#168a94;stroke-width:0.529474;stroke-dasharray:2.11789, 0.529474;stroke-dashoffset:0.529474"
         d="m 29.156923,69.438138 -3.534681,2.334742 -2.128363,-0.986505 c -1.276434,2.193872 -2.777322,4.945912 -4.242993,7.754049 l 4.816409,4.600236 3.402242,-5.83737 1.263578,1.63866 3.995771,-3.177066 c -1.290674,-2.398901 -2.541351,-4.62357 -3.571963,-6.326746 z" />
    </g>
  </g>
</svg>
