<?xml version="1.0" encoding="UTF-8" standalone="no"?>
<!-- Created with Inkscape (http://www.inkscape.org/) -->

<svg
   width="500.00003"
   height="500.00003"
   viewBox="0 0 132.29168 132.29168"
   version="1.1"
   id="svg5"
   xmlns="http://www.w3.org/2000/svg"
   xmlns:svg="http://www.w3.org/2000/svg">
  <defs
     id="defs2">
    <marker
       style="overflow:visible"
       id="Arrow1Lstart"
       refX="0.0"
       refY="0.0"
       orient="auto">
      <path
         transform="scale(0.8) translate(12.5,0)"
         style="fill-rule:evenodd;fill:context-stroke;stroke:context-stroke;stroke-width:1pt"
         d="M 0.0,0.0 L 5.0,-5.0 L -12.5,0.0 L 5.0,5.0 L 0.0,0.0 z "
         id="path1165" />
    </marker>
  </defs>
  <g
     id="layer16">
    <g
       id="g18129"
       transform="matrix(-0.06590973,0.47000028,-0.47000028,-0.06590973,142.14326,40.069635)">
      <path
         id="path12146-5"
         style="fill:#168a94;stroke-width:0.453352;stroke-dasharray:1.81342, 0.453352;stroke-dashoffset:0.453352"
         d="m 60.581186,41.159473 a 1.0009708,2.1020385 37.651429 0 0 -0.70752,1.822257 c -0.475423,0.180826 -1.000609,0.4401 -1.015127,0.548205 -0.02538,0.189015 1.333327,1.237312 1.509714,1.164794 0.104497,-0.04301 0.227058,-0.656734 0.278404,-1.174762 a 1.0009708,2.1020385 37.651429 0 0 1.519596,-1.137558 1.0009708,2.1020385 37.651429 0 0 0.491519,-2.275764 1.0009708,2.1020385 37.651429 0 0 -2.076601,1.052823 z M 61.763601,40.5916 a 0.11322343,0.11322343 0 0 1 0.0052,-0.0065 0.11322343,0.11322343 0 0 1 0.158616,-0.02077 0.11322343,0.11322343 0 0 1 0.02051,0.158966 0.11322343,0.11322343 0 0 1 -0.158966,0.02051 0.11322343,0.11322343 0 0 1 -0.02521,-0.152061 z" />
      <path
         id="rect12812-2"
         style="fill:#d03260;stroke-width:2;stroke-dasharray:8.00001, 2;stroke-dashoffset:2"
         d="m 330.19727,138 c -2.59984,-0.003 -18.39712,14.9458 -19.24024,16.73828 -1.00895,2.64718 -2.03705,5.97321 -2.98828,9.29883 h 1.72461 c 0.99622,-2.93316 2.14708,-5.68933 3.42187,-7.65234 7.61786,-5.12197 13.69206,-11.12218 17.30665,-17.38477 0.2493,-0.6925 0.14679,-0.99962 -0.22461,-1 z m 12.65429,10.70312 c -3.21595,-0.0498 -13.53386,3.01313 -19.50586,5.14454 1.91304,-1.9524 3.03127,-3.67676 2.64844,-4.08399 -0.43444,-0.46267 -2.63568,0.92317 -4.91406,3.09375 -1.57492,1.50065 -2.8393,3.0508 -3.25781,3.99414 -2.09718,2.10408 -4.4183,4.67118 -6.60743,7.18555 h 2.16993 c 2.00112,-2.09537 4.07784,-4.03237 5.99414,-5.37305 1.04419,0.39199 2.68586,0.72827 4.44336,0.91016 3.12653,0.3242 5.71386,0.0759 5.77929,-0.55469 0.0605,-0.60023 -2.19226,-1.33663 -5.15625,-1.68555 7.38065,-1.51322 13.9164,-4.04876 18.94922,-7.50781 0.78483,-0.77648 0.48026,-1.10719 -0.54297,-1.12305 z m -85.14258,1.62891 c -0.3714,3.9e-4 -0.47196,0.30554 -0.22265,0.99805 2.55769,4.43144 6.34691,8.73093 11.04297,12.68164 h 5.73242 c -4.82303,-4.90842 -14.56018,-13.68175 -16.55274,-13.67969 z m -45.28515,29.80078 c -0.37141,3.9e-4 -0.47197,0.30554 -0.22266,0.99805 2.75492,4.77317 6.93807,9.39419 12.14453,13.58984 h 5.51172 c -0.60544,-0.63797 -1.33324,-1.37501 -2.14453,-2.17382 a 5.2046577,1.4609564 81.341962 0 0 -0.18945,-2.94922 5.2046577,1.4609564 81.341962 0 0 -2.13086,-4.92774 5.2046577,1.4609564 81.341962 0 0 -0.0957,0.002 5.2046577,1.4609564 81.341962 0 0 -0.72852,4.86523 c -4.85367,-4.52048 -10.65776,-9.40584 -12.14453,-9.4043 z m 143.97851,2.09961 c -1.7576,-0.002 -9.54536,6.82696 -14.66796,11.80664 h 5.97851 c 3.71755,-3.42177 6.75358,-7.06873 8.91211,-10.80859 0.24931,-0.69251 0.14875,-0.99766 -0.22266,-0.99805 z"
         transform="scale(0.26458333)" />
      <path
         id="rect9945"
         style="fill:#ee8180;stroke-width:2;stroke-dasharray:8.00001, 2;stroke-dashoffset:2"
         d="m 250.9375,162.48633 v 3.04101 h 74.61914 v -3.04101 z m 2.21875,4.42187 c -0.004,0.13833 -0.008,0.27711 -0.008,0.41602 0,9.36024 8.89728,17.38693 21.56054,20.78711 -0.18935,1.05161 -0.67757,2.18199 -1.23632,3.23828 H 209.7832 c -1.58844,0 -2.86718,1.27874 -2.86718,2.86719 v 3.28906 h 162.63281 v -3.28906 c 0,-1.58845 -1.27874,-2.86719 -2.86719,-2.86719 h -63.69141 c -0.5575,-1.05422 -1.0443,-2.18258 -1.23437,-3.23242 12.67811,-3.39604 21.58984,-11.4261 21.58984,-20.79297 0,-0.13894 -0.004,-0.27768 -0.008,-0.41602 z m -46.24023,31.53321 v 12.35937 h -6.41797 c -1.46626,0 -2.64649,1.18023 -2.64649,2.64649 v 31.99804 c 0,1.46626 1.18023,2.64649 2.64649,2.64649 h 175.46679 c 1.46626,0 2.64649,-1.18023 2.64649,-2.64649 v -31.99804 c 0,-1.46626 -1.18023,-2.64649 -2.64649,-2.64649 h -6.41601 v -12.35937 z"
         transform="scale(0.26458333)" />
      <path
         id="path30615-7-3-3"
         style="fill:#d03260;stroke-width:0.344704;stroke-dasharray:1.37881, 0.344704;stroke-dashoffset:0.344704"
         d="m 93.452896,57.604644 a 2.6776144,0.38211622 89.122989 0 0 -0.339711,2.308452 2.6776144,0.38211622 89.122989 0 0 0.0059,0.555531 1.5869501,0.63028428 87.156882 0 0 -0.350912,-0.392101 1.5869501,0.63028428 87.156882 0 0 -0.588811,0.71995 c -0.169518,0.0099 -0.33744,0.04204 -0.502812,0.09325 a 1.8236698,0.90823314 75.560625 0 0 -0.924897,-0.831978 1.8236698,0.90823314 75.560625 0 0 -0.618135,1.742047 1.8236698,0.90823314 75.560625 0 0 0.02537,0.126857 c -0.36796,0.393129 -0.704576,0.863938 -1.000023,1.369717 a 3.5525926,1.0870881 82.873833 0 0 -1.064933,-1.572687 3.5525926,1.0870881 82.873833 0 0 -0.727528,3.450817 3.5525926,1.0870881 82.873833 0 0 0.574973,2.481437 c 0.08115,0.470199 0.303067,0.786981 0.62769,0.999035 a 3.5525926,1.0870881 82.873833 0 0 0.175622,0.100166 c 0.885706,0.438827 2.35638,0.290286 3.833692,0.290286 0.497535,0 0.994243,-0.01957 1.468235,-0.07051 0.451041,0.691546 1.347673,0.401987 1.991811,0.401987 0.349674,0 0.686449,0.06713 0.967402,0.01317 0.839362,0.619338 2.455957,0.439877 4.080491,0.439877 2.34369,0 4.6716,-0.422345 4.6716,-2.613235 0,-1.342382 -0.98113,-3.156467 -2.28012,-4.360557 a 0.38211622,2.6776144 22.568725 0 0 0.35783,-1.646165 0.38211622,2.6776144 22.568725 0 0 -0.85801,1.063616 2.6776144,0.38211622 72.493443 0 0 -0.55981,-0.932806 2.6776144,0.38211622 72.493443 0 0 -0.10412,0.664265 c -0.49774,-0.269468 -1.01143,-0.427685 -1.51272,-0.427685 -0.63165,0 -1.241284,0.308657 -1.795097,0.801993 a 1.0297752,4.0569373 19.075164 0 0 -0.239183,-0.736097 1.0297752,4.0569373 19.075164 0 0 -1.183553,0.893596 0.38315553,2.6703513 9.7424026 0 0 -0.03756,-1.47911 0.38315553,2.6703513 9.7424026 0 0 -0.62835,1.323586 c -0.261951,-0.760575 -0.565162,-1.271527 -0.878767,-1.271527 -0.283394,0 -0.615725,0.428792 -0.937421,1.086021 -0.386005,-0.376181 -0.803388,-0.69967 -1.233306,-0.941041 a 2.6776144,0.38211622 89.122989 0 0 0.01384,-0.604298 2.6776144,0.38211622 89.122989 0 0 -0.371343,-3.020494 2.6776144,0.38211622 89.122989 0 0 -0.05733,-0.02537 z" />
      <path
         id="path30615-7-3-3-3"
         style="fill:#d03260;stroke-width:0.344704;stroke-dasharray:1.37881, 0.344704;stroke-dashoffset:0.344704"
         d="m 80.198311,58.006302 a 2.6776144,0.38211622 89.122989 0 0 -0.339707,2.308452 2.6776144,0.38211622 89.122989 0 0 0.0059,0.555531 1.5869501,0.63028428 87.156882 0 0 -0.350912,-0.392101 1.5869501,0.63028428 87.156882 0 0 -0.588811,0.71995 c -0.169518,0.0099 -0.33744,0.04204 -0.502812,0.09325 a 1.8236698,0.90823314 75.560625 0 0 -0.924897,-0.831978 1.8236698,0.90823314 75.560625 0 0 -0.618135,1.742047 1.8236698,0.90823314 75.560625 0 0 0.02537,0.126857 c -0.36796,0.393129 -0.704576,0.863938 -1.000023,1.369717 a 3.5525926,1.0870881 82.873833 0 0 -1.064933,-1.572687 3.5525926,1.0870881 82.873833 0 0 -0.727528,3.450817 3.5525926,1.0870881 82.873833 0 0 0.574973,2.481437 c 0.08115,0.470199 0.303067,0.786981 0.62769,0.999035 a 3.5525926,1.0870881 82.873833 0 0 0.175622,0.100166 c 0.885706,0.438827 2.35638,0.290286 3.833692,0.290286 0.497535,0 0.994241,-0.01957 1.468231,-0.07051 0.45105,0.691546 1.34768,0.401987 1.99182,0.401987 0.34967,0 0.68644,0.06713 0.9674,0.01317 0.83936,0.619338 2.45595,0.439877 4.08049,0.439877 2.34369,0 4.6716,-0.422345 4.6716,-2.613235 0,-1.342382 -0.98113,-3.156467 -2.28012,-4.360557 a 0.38211622,2.6776144 22.568725 0 0 0.35783,-1.646165 0.38211622,2.6776144 22.568725 0 0 -0.85801,1.063616 2.6776144,0.38211622 72.493443 0 0 -0.55981,-0.932806 2.6776144,0.38211622 72.493443 0 0 -0.10412,0.664265 c -0.49774,-0.269468 -1.01143,-0.427685 -1.51272,-0.427685 -0.63165,0 -1.24129,0.308657 -1.7951,0.801993 a 1.0297752,4.0569373 19.075164 0 0 -0.23918,-0.736097 1.0297752,4.0569373 19.075164 0 0 -1.18355,0.893596 0.38315553,2.6703513 9.7424026 0 0 -0.0376,-1.47911 0.38315553,2.6703513 9.7424026 0 0 -0.62835,1.323586 c -0.26196,-0.760575 -0.56517,-1.271527 -0.87877,-1.271527 -0.2834,0 -0.61573,0.428792 -0.93742,1.086021 -0.38601,-0.376181 -0.80339,-0.69967 -1.23331,-0.941041 a 2.6776144,0.38211622 89.122989 0 0 0.0138,-0.604298 2.6776144,0.38211622 89.122989 0 0 -0.37134,-3.020494 2.6776144,0.38211622 89.122989 0 0 -0.0573,-0.02537 z" />
      <path
         id="path30615-7-3-3-3-7"
         style="fill:#d03260;stroke-width:0.344704;stroke-dasharray:1.37881, 0.344704;stroke-dashoffset:0.344704"
         d="m 59.845466,57.470761 a 0.38211622,2.6776144 0.877011 0 1 0.339707,2.308452 0.38211622,2.6776144 0.877011 0 1 -0.0059,0.555531 0.63028428,1.5869501 2.843118 0 1 0.350912,-0.392101 0.63028428,1.5869501 2.843118 0 1 0.588811,0.71995 c 0.169518,0.0099 0.33744,0.04204 0.502812,0.09325 a 0.90823314,1.8236698 14.439375 0 1 0.924897,-0.831978 0.90823314,1.8236698 14.439375 0 1 0.618135,1.742047 0.90823314,1.8236698 14.439375 0 1 -0.02537,0.126857 c 0.36796,0.393129 0.704576,0.863938 1.000023,1.369717 a 1.0870881,3.5525926 7.126167 0 1 1.064933,-1.572687 1.0870881,3.5525926 7.126167 0 1 0.727528,3.450817 1.0870881,3.5525926 7.126167 0 1 -0.574973,2.481437 c -0.08115,0.470199 -0.303067,0.786981 -0.62769,0.999035 a 1.0870881,3.5525926 7.126167 0 1 -0.175622,0.100166 c -0.885706,0.438827 -2.35638,0.290286 -3.833692,0.290286 -0.497535,0 -0.994241,-0.01957 -1.468231,-0.07051 -0.45105,0.691546 -1.34768,0.401987 -1.99182,0.401987 -0.34967,0 -0.68644,0.06713 -0.9674,0.01317 -0.83936,0.619338 -2.45595,0.439877 -4.08049,0.439877 -2.34369,0 -4.6716,-0.422345 -4.6716,-2.613235 0,-1.342382 0.98113,-3.156467 2.28012,-4.360557 a 2.6776144,0.38211622 67.431275 0 1 -0.35783,-1.646165 2.6776144,0.38211622 67.431275 0 1 0.85801,1.063616 0.38211622,2.6776144 17.506557 0 1 0.55981,-0.932806 0.38211622,2.6776144 17.506557 0 1 0.10412,0.664265 c 0.49774,-0.269468 1.01143,-0.427685 1.51272,-0.427685 0.63165,0 1.24129,0.308657 1.7951,0.801993 a 4.0569373,1.0297752 70.924836 0 1 0.23918,-0.736097 4.0569373,1.0297752 70.924836 0 1 1.18355,0.893596 2.6703513,0.38315553 80.257597 0 1 0.0376,-1.47911 2.6703513,0.38315553 80.257597 0 1 0.62835,1.323586 c 0.26196,-0.760575 0.56517,-1.271527 0.87877,-1.271527 0.2834,0 0.61573,0.428792 0.93742,1.086021 0.38601,-0.376181 0.80339,-0.69967 1.23331,-0.941041 a 0.38211622,2.6776144 0.877011 0 1 -0.0138,-0.604298 0.38211622,2.6776144 0.877011 0 1 0.37134,-3.020494 0.38211622,2.6776144 0.877011 0 1 0.0573,-0.02537 z" />
      <rect
         style="fill:#168a94;stroke-width:0.529167;stroke-dasharray:2.11667, 0.529167;stroke-dashoffset:0.529167"
         id="rect17815"
         width="43.763954"
         height="0.90390265"
         x="54.234161"
         y="52.049728"
         ry="0.52916664" />
    </g>
  </g>
</svg>
