<?xml version="1.0" encoding="UTF-8" standalone="no"?>
<!-- Created with Inkscape (http://www.inkscape.org/) -->

<svg
   width="500.00003"
   height="500.00003"
   viewBox="0 0 132.29168 132.29168"
   version="1.1"
   id="svg5"
   xmlns="http://www.w3.org/2000/svg"
   xmlns:svg="http://www.w3.org/2000/svg">
  <defs
     id="defs2">
    <marker
       style="overflow:visible"
       id="Arrow1Lstart"
       refX="0.0"
       refY="0.0"
       orient="auto">
      <path
         transform="scale(0.8) translate(12.5,0)"
         style="fill-rule:evenodd;fill:context-stroke;stroke:context-stroke;stroke-width:1pt"
         d="M 0.0,0.0 L 5.0,-5.0 L -12.5,0.0 L 5.0,5.0 L 0.0,0.0 z "
         id="path1165" />
    </marker>
  </defs>
  <g
     id="layer1"
     transform="translate(-0.41307369,-0.41307369)"
     style="display:none">
    <rect
       style="fill:#f2f2f2;stroke-width:0.234412"
       id="rect53"
       width="132.29167"
       height="132.29167"
       x="0.41307369"
       y="0.41307369" />
  </g>
  <g
     id="layer2"
     style="display:none">
    <circle
       style="fill:#550000;stroke-width:0.219621"
       id="path321"
       cx="66.145844"
       cy="66.145844"
       r="42.5" />
  </g>
  <g
     id="layer3"
     style="display:none">
    <path
       id="path321-7"
       style="fill:#2b384a;stroke-width:0.791;stroke-linecap:round;stroke-linejoin:bevel;stroke-dasharray:0.791, 0.791"
       d="M 250,97 A 153,153 0 0 0 97,250 153,153 0 0 0 250,403 153,153 0 0 0 403,250 153,153 0 0 0 250,97 Z m 0,13 A 140,140 0 0 1 390,250 140,140 0 0 1 250,390 140,140 0 0 1 110,250 140,140 0 0 1 250,110 Z"
       transform="scale(0.26458334)" />
  </g>
  <g
     id="layer5"
     style="display:none">
    <ellipse
       style="fill:none;stroke:#bfd9d0;stroke-width:0.529167;stroke-linejoin:bevel;stroke-dasharray:2.11667, 0.529167;stroke-dashoffset:0.529167"
       id="path321-7-6"
       cx="66.145866"
       cy="66.14518"
       rx="38.738205"
       ry="38.738743" />
  </g>
  <g
     id="layer4"
     style="display:none">
    <path
       id="path321-8"
       style="fill:none;stroke:#ef8082;stroke-width:3.09472"
       d="m 294.68688,123.22193 a 134.42321,134.42321 0 0 1 89.73636,126.7781 v 0 A 134.42321,134.42321 0 0 1 250.00003,384.42324 134.42321,134.42321 0 0 1 115.57682,250.00003 134.42321,134.42321 0 0 1 151.6421,158.37407"
       transform="scale(0.26458334)" />
  </g>
  <g
     id="layer6"
     style="display:none">
    <path
       id="path4131"
       style="fill:none;stroke:#d13261;stroke-width:2"
       d="M 343.21521,338.48548 A 128.52527,128.52527 0 0 1 250.00003,378.5253 128.52527,128.52527 0 0 1 121.47476,250.00003 128.52527,128.52527 0 0 1 250.00003,121.47476 a 128.52527,128.52527 0 0 1 104.8065,54.1321"
       transform="scale(0.26458334)" />
  </g>
  <g
     id="layer7"
     style="display:none">
    <circle
       style="fill:none;stroke:#168a94;stroke-width:0.529167"
       id="path321-3"
       cx="66.145844"
       cy="66.145844"
       r="32.747223" />
  </g>
  <g
     id="layer8"
     style="display:none">
    <text
       xml:space="preserve"
       style="font-size:9.98832px;line-height:1.25;font-family:'.Keyboard';-inkscape-font-specification:'.Keyboard';fill:#1a1a1a;stroke-width:0.249709"
       x="38.711113"
       y="69.891464"
       id="text8175"><tspan
         id="tspan8173"
         style="font-family:Krungthep;-inkscape-font-specification:Krungthep"
         x="38.711113"
         y="69.891464">SVEN 2020</tspan></text>
  </g>
  <g
     id="layer9">
    <g
       aria-label="SVEN 2020"
       id="text8175-7"
       style="font-size:9.98832px;font-family:'.Keyboard';-inkscape-font-specification:'.Keyboard';fill:#1a1a1a;stroke-width:0.249709">
      <path
         d="m 39.750924,69.767095 v -0.926651 q 1.170507,0.555991 2.12642,0.555991 0.399923,0 0.765706,-0.151191 0.365783,-0.156067 0.551114,-0.443817 0.190207,-0.287749 0.190207,-0.62427 0,-0.395046 -0.258487,-0.736443 -0.258487,-0.346275 -0.970545,-0.760829 l -0.497465,-0.28775 -0.502342,-0.287749 q -1.326574,-0.785215 -1.326574,-1.950844 0,-0.853494 0.59013,-1.43387 0.595008,-0.585254 1.853302,-0.585254 0.8096,0 1.565552,0.234102 v 0.84374 q -0.833986,-0.32189 -1.624077,-0.32189 -0.629148,0 -1.019316,0.331644 -0.385292,0.331643 -0.385292,0.799846 0,0.463325 0.297504,0.770583 0.297503,0.307258 0.760829,0.565745 l 0.380414,0.229224 0.47308,0.28775 0.399923,0.234101 q 1.243663,0.760829 1.243663,1.911827 0,0.877879 -0.638901,1.507027 -0.638902,0.629147 -2.048386,0.629147 -0.448695,0 -0.858372,-0.07803 -0.4048,-0.07316 -1.068087,-0.312135 z"
         style="-inkscape-font-specification:Monaco"
         id="path16339" />
      <path
         d="m 49.866049,62.358766 h 0.94616 L 48.48095,69.92804 h -0.999807 l -2.34589,-7.569274 h 1.038824 l 1.643586,5.286786 0.214593,0.770584 0.190207,-0.765707 z"
         style="-inkscape-font-specification:Monaco"
         id="path16341" />
      <path
         d="m 56.04047,69.094054 v 0.833986 h -4.087018 v -7.569274 h 4.008984 v 0.760829 h -3.023808 v 2.570236 h 2.721427 v 0.755952 h -2.721427 v 2.648271 z"
         style="-inkscape-font-specification:Monaco"
         id="path16343" />
      <path
         d="m 58.474148,69.92804 h -0.907142 v -7.569274 h 0.887634 l 2.677533,5.038054 0.292626,0.751075 h 0.02439 l -0.02439,-0.751075 v -5.038054 h 0.907143 v 7.569274 h -0.907143 l -2.604376,-4.955144 -0.365783,-0.794969 0.01951,0.785215 z"
         style="-inkscape-font-specification:Monaco"
         id="path16345" />
      <path
         d="m 74.236965,69.92804 h -4.579606 v -0.833986 q 0,-0.321889 0.131682,-0.687673 0.131682,-0.37066 0.502342,-0.829108 0.370661,-0.458449 0.785215,-0.882757 l 0.516974,-0.526728 q 0.156067,-0.160945 0.682795,-0.746198 0.526728,-0.585253 0.692549,-0.897388 0.170699,-0.312135 0.170699,-0.614516 0,-0.487711 -0.390168,-0.751074 -0.390169,-0.268242 -0.87788,-0.268242 -0.277995,0 -0.62427,0.0634 -0.341398,0.0634 -0.599885,0.15119 -0.258486,0.08291 -0.838862,0.346275 v -0.804723 q 0.614515,-0.292627 1.229031,-0.399923 0.619393,-0.112174 1.019316,-0.112174 0.59013,0 1.082718,0.195085 0.497465,0.190207 0.736444,0.595007 0.243855,0.4048 0.243855,0.863249 0,0.512096 -0.312135,1.048578 -0.307258,0.536482 -1.165629,1.380222 l -0.55599,0.551114 -0.468203,0.458448 q -0.443817,0.448694 -0.716935,0.868125 -0.273118,0.419432 -0.302381,0.999808 h 3.638324 z"
         style="-inkscape-font-specification:Monaco"
         id="path16347" />
      <path
         d="m 77.914307,62.134418 q 1.292434,0 1.970352,1.087596 0.677918,1.082718 0.677918,2.921389 0,1.843547 -0.677918,2.931142 -0.677918,1.082719 -1.970352,1.082719 -1.287557,0 -1.970352,-1.082719 -0.677919,-1.087595 -0.677919,-2.931142 0,-1.838671 0.677919,-2.921389 0.682795,-1.087596 1.970352,-1.087596 z m -1.477764,5.628185 2.619008,-4.101649 q -0.248733,-0.453571 -0.54136,-0.609639 -0.287749,-0.160945 -0.599884,-0.160945 -0.814477,0 -1.238786,0.907143 -0.424308,0.902265 -0.424308,2.292241 0,0.317012 0.01951,0.682796 0.01951,0.365783 0.165822,0.990053 z m 2.945774,-3.199384 -2.599499,4.126035 q 0.209715,0.356029 0.482833,0.536482 0.273118,0.175576 0.609639,0.175576 0.926651,0 1.31682,-1.033948 0.390168,-1.038824 0.390168,-2.301995 0,-0.780338 -0.199961,-1.50215 z"
         style="-inkscape-font-specification:Monaco"
         id="path16349" />
      <path
         d="m 86.215147,69.92804 h -4.579606 v -0.833986 q 0,-0.321889 0.131682,-0.687673 0.131682,-0.37066 0.502342,-0.829108 0.370661,-0.458449 0.785215,-0.882757 l 0.516973,-0.526728 q 0.156068,-0.160945 0.682796,-0.746198 0.526728,-0.585253 0.692549,-0.897388 0.170699,-0.312135 0.170699,-0.614516 0,-0.487711 -0.390169,-0.751074 -0.390168,-0.268242 -0.877879,-0.268242 -0.277996,0 -0.62427,0.0634 -0.341398,0.0634 -0.599885,0.15119 -0.258487,0.08291 -0.838863,0.346275 v -0.804723 q 0.614516,-0.292627 1.229032,-0.399923 0.619393,-0.112174 1.019316,-0.112174 0.59013,0 1.082718,0.195085 0.497465,0.190207 0.736444,0.595007 0.243855,0.4048 0.243855,0.863249 0,0.512096 -0.312135,1.048578 -0.307258,0.536482 -1.165629,1.380222 l -0.555991,0.551114 -0.468202,0.458448 q -0.443817,0.448694 -0.716935,0.868125 -0.273118,0.419432 -0.302381,0.999808 h 3.638324 z"
         style="-inkscape-font-specification:Monaco"
         id="path16351" />
      <path
         d="m 89.892487,62.134418 q 1.292434,0 1.970352,1.087596 0.677918,1.082718 0.677918,2.921389 0,1.843547 -0.677918,2.931142 -0.677918,1.082719 -1.970352,1.082719 -1.287557,0 -1.970352,-1.082719 -0.677919,-1.087595 -0.677919,-2.931142 0,-1.838671 0.677919,-2.921389 0.682795,-1.087596 1.970352,-1.087596 z m -1.477764,5.628185 2.619007,-4.101649 q -0.248732,-0.453571 -0.541359,-0.609639 -0.287749,-0.160945 -0.599884,-0.160945 -0.814477,0 -1.238786,0.907143 -0.424309,0.902265 -0.424309,2.292241 0,0.317012 0.01951,0.682796 0.01951,0.365783 0.165822,0.990053 z m 2.945774,-3.199384 -2.5995,4.126035 q 0.209716,0.356029 0.482834,0.536482 0.273118,0.175576 0.609639,0.175576 0.926651,0 1.31682,-1.033948 0.390168,-1.038824 0.390168,-2.301995 0,-0.780338 -0.199961,-1.50215 z"
         style="-inkscape-font-specification:Monaco"
         id="path16353" />
    </g>
  </g>
</svg>
