<?xml version="1.0" encoding="UTF-8" standalone="no"?>
<!-- Created with Inkscape (http://www.inkscape.org/) -->

<svg
   width="500.00003"
   height="500.00003"
   viewBox="0 0 132.29168 132.29168"
   version="1.1"
   id="svg5"
   xmlns="http://www.w3.org/2000/svg"
   xmlns:svg="http://www.w3.org/2000/svg">
  <defs
     id="defs2">
    <marker
       style="overflow:visible"
       id="Arrow1Lstart"
       refX="0.0"
       refY="0.0"
       orient="auto">
      <path
         transform="scale(0.8) translate(12.5,0)"
         style="fill-rule:evenodd;fill:context-stroke;stroke:context-stroke;stroke-width:1pt"
         d="M 0.0,0.0 L 5.0,-5.0 L -12.5,0.0 L 5.0,5.0 L 0.0,0.0 z "
         id="path1165" />
    </marker>
  </defs>
  <g
     id="layer11">
    <path
       id="rect1246"
       style="fill:#2b384a;stroke-width:0.685189;stroke-dasharray:2.74076, 0.685189;stroke-dashoffset:0.685189"
       d="M 6.8332945,75.224041 7.2386568,75.213717 6.9050969,62.117076 6.4997348,62.1274 Z m 0.7106358,1.016712 1.0461814,-0.02665 0.020937,0.822088 0.9886543,-0.02518 -0.4281128,-16.809101 -0.988654,0.02518 0.020921,0.821428 -1.0461801,0.02665 z m 2.3037115,2.200372 1.0901062,-0.430708 -0.24037,-9.43769 -0.240351,-9.437015 -1.1106192,-0.375381 0.2506262,9.84037 z m 1.4062832,-1.47224 3.276331,-0.08345 -0.02457,-0.964566 4.587402,-0.116837 0.208255,8.176782 1.798707,-0.04581 -0.0285,-1.119091 6.541295,-0.166601 -0.01697,-0.666235 -6.541295,0.166601 -0.02779,-1.090994 6.541296,-0.166601 -0.01697,-0.66624 -6.541297,0.166601 -0.02779,-1.090993 6.541296,-0.166601 -0.01697,-0.666241 -6.541296,0.166601 -0.0278,-1.091666 6.541296,-0.166602 -0.01697,-0.666239 -6.541295,0.166601 -0.0285,-1.119082 6.541295,-0.166601 -0.03852,-1.512419 -12.927405,0.32925 -0.04649,-1.825462 12.927405,-0.32925 -0.03852,-1.512406 -12.927404,0.329249 -0.04649,-1.825462 12.927406,-0.329249 -0.03852,-1.512406 -12.927405,0.329249 -0.04649,-1.825461 12.927406,-0.32925 -0.03852,-1.512419 -12.927406,0.329249 -0.04649,-1.825462 12.927405,-0.32925 -0.03852,-1.512405 -6.541296,0.1666 -0.0285,-1.119094 6.541296,-0.166601 -0.01697,-0.66624 -6.541295,0.166601 -0.02779,-1.090994 6.541296,-0.166601 -0.01697,-0.66624 -6.541295,0.166602 -0.02779,-1.090993 6.541296,-0.166601 -0.01697,-0.66624 -6.541296,0.166601 -0.0278,-1.091667 6.541296,-0.166601 -0.01697,-0.666227 -6.541295,0.1666 -0.0285,-1.119094 -1.798708,0.04581 0.208256,8.176789 -4.587401,0.116837 -0.02498,-0.980629 -3.27633,0.08344 z" />
  </g>
</svg>
