<?xml version="1.0" encoding="UTF-8" standalone="no"?>
<!-- Created with Inkscape (http://www.inkscape.org/) -->

<svg
   width="500.00003"
   height="500.00003"
   viewBox="0 0 132.29168 132.29168"
   version="1.1"
   id="svg5"
   inkscape:version="1.1.1 (c3084ef, 2021-09-22)"
   sodipodi:docname="text.svg"
   xmlns:inkscape="http://www.inkscape.org/namespaces/inkscape"
   xmlns:sodipodi="http://sodipodi.sourceforge.net/DTD/sodipodi-0.dtd"
   xmlns="http://www.w3.org/2000/svg"
   xmlns:svg="http://www.w3.org/2000/svg">
  <sodipodi:namedview
     id="namedview7"
     pagecolor="#262626"
     bordercolor="#666666"
     borderopacity="1.0"
     inkscape:pageshadow="2"
     inkscape:pageopacity="0"
     inkscape:pagecheckerboard="0"
     inkscape:document-units="px"
     showgrid="false"
     units="px"
     fit-margin-top="0"
     fit-margin-left="0"
     fit-margin-right="0"
     fit-margin-bottom="0"
     inkscape:showpageshadow="false"
     inkscape:zoom="1.2161989"
     inkscape:cx="180.06923"
     inkscape:cy="256.12586"
     inkscape:window-width="1723"
     inkscape:window-height="1067"
     inkscape:window-x="0"
     inkscape:window-y="25"
     inkscape:window-maximized="0"
     inkscape:current-layer="layer18"
     inkscape:lockguides="true"
     inkscape:snap-global="true"
     inkscape:snap-object-midpoints="true"
     inkscape:snap-center="true" />
  <defs
     id="defs2">
    <rect
       x="278.94859"
       y="274.38813"
       width="99.570206"
       height="45.604675"
       id="rect6455" />
    <marker
       style="overflow:visible"
       id="Arrow1Lstart"
       refX="0.0"
       refY="0.0"
       orient="auto"
       inkscape:stockid="Arrow1Lstart"
       inkscape:isstock="true">
      <path
         transform="scale(0.8) translate(12.5,0)"
         style="fill-rule:evenodd;fill:context-stroke;stroke:context-stroke;stroke-width:1pt"
         d="M 0.0,0.0 L 5.0,-5.0 L -12.5,0.0 L 5.0,5.0 L 0.0,0.0 z "
         id="path1165" />
    </marker>
    <inkscape:path-effect
       effect="mirror_symmetry"
       start_point="77.511031,40.140187"
       end_point="77.511031,41.635186"
       center_point="77.511031,40.887687"
       id="path-effect4714"
       is_visible="true"
       lpeversion="1.1"
       mode="free"
       discard_orig_path="false"
       fuse_paths="false"
       oposite_fuse="false"
       split_items="false"
       split_open="false" />
    <inkscape:path-effect
       effect="mirror_symmetry"
       start_point="77.511031,40.140187"
       end_point="77.511031,41.635186"
       center_point="77.511031,40.887687"
       id="path-effect5436"
       is_visible="true"
       lpeversion="1.1"
       mode="free"
       discard_orig_path="false"
       fuse_paths="false"
       oposite_fuse="false"
       split_items="false"
       split_open="false" />
    <inkscape:path-effect
       effect="mirror_symmetry"
       start_point="77.511031,40.140187"
       end_point="77.511031,41.635186"
       center_point="77.511031,40.887687"
       id="path-effect7980"
       is_visible="true"
       lpeversion="1.1"
       mode="free"
       discard_orig_path="false"
       fuse_paths="false"
       oposite_fuse="false"
       split_items="false"
       split_open="false" />
  </defs>
  <g
     inkscape:groupmode="layer"
     id="layer18"
     inkscape:label="font 3">
    <g
       aria-label="SVEN ANDERS0N
2021"
       id="text2373-3"
       style="font-size:6.8394px;font-family:'Apple Braille';-inkscape-font-specification:'Apple Braille';stroke-width:0.170986">
      <path
         d="m 39.98049,64.209198 v -0.635087 q 0.801186,0.381052 1.455815,0.381052 0.273576,0 0.524354,-0.104219 0.250778,-0.10422 0.377795,-0.299631 0.130274,-0.198669 0.130274,-0.429905 0,-0.27032 -0.179127,-0.504813 -0.17587,-0.237751 -0.661142,-0.521097 l -0.34197,-0.195412 -0.345227,-0.198668 q -0.908663,-0.537381 -0.908663,-1.335311 0,-0.586235 0.407107,-0.983571 0.407108,-0.400594 1.266918,-0.400594 0.553666,0 1.071506,0.162843 v 0.576464 q -0.56995,-0.221466 -1.110588,-0.221466 -0.429906,0 -0.696968,0.22798 -0.267062,0.22798 -0.267062,0.547152 0,0.319172 0.205182,0.530867 0.205182,0.208439 0.521097,0.384309 l 0.260549,0.15633 0.322428,0.198668 0.276833,0.159586 q 0.85004,0.521097 0.85004,1.309256 0,0.602519 -0.439676,1.032424 -0.436419,0.429905 -1.400448,0.429905 -0.306145,0 -0.586235,-0.05211 -0.280089,-0.05211 -0.732792,-0.214952 z"
         style="-inkscape-font-specification:Ayuthaya"
         id="path17776" />
      <path
         d="m 46.905153,59.138271 h 0.648115 l -1.59586,5.18166 h -0.68394 l -1.605631,-5.18166 h 0.709995 l 1.126873,3.618369 0.146558,0.52761 0.130274,-0.524353 z"
         style="-inkscape-font-specification:Ayuthaya;fill:#168a94"
         id="path17778" />
      <path
         d="m 51.133139,63.749981 v 0.56995 h -2.79764 v -5.18166 h 2.74553 v 0.521098 h -2.071361 v 1.758702 h 1.862922 v 0.517841 h -1.862922 v 1.814069 z"
         style="-inkscape-font-specification:Ayuthaya"
         id="path17780" />
      <path
         d="m 52.801235,64.319931 h -0.62206 v -5.18166 h 0.609033 l 1.83361,3.449012 0.198668,0.514583 h 0.01628 l -0.01628,-0.514583 v -3.449012 h 0.62206 v 5.18166 h -0.62206 l -1.7815,-3.393645 -0.250778,-0.543895 0.01303,0.537381 z"
         style="-inkscape-font-specification:Ayuthaya"
         id="path17782" />
      <path
         d="m 60.679751,64.319931 h -0.648115 l 1.59586,-5.18166 h 0.68394 l 1.605631,5.18166 h -0.709995 l -0.354998,-1.1399 h -1.823839 z m 0.511326,-1.65774 h 1.511182 l -0.625317,-1.967142 -0.146558,-0.521097 -0.130274,0.521097 z"
         style="-inkscape-font-specification:Ayuthaya"
         id="path17784" />
      <path
         d="m 65.064065,64.319931 h -0.62206 v -5.18166 h 0.609032 l 1.833611,3.449012 0.198668,0.514583 h 0.01628 l -0.01628,-0.514583 v -3.449012 h 0.62206 v 5.18166 h -0.62206 l -1.781501,-3.393645 -0.250778,-0.543895 0.01303,0.537381 z"
         style="-inkscape-font-specification:Ayuthaya"
         id="path17786" />
      <path
         d="m 68.64068,64.319931 v -5.18166 h 1.227835 q 0.85004,0 1.260404,0.296374 0.413621,0.293118 0.618803,0.892379 0.208439,0.596005 0.208439,1.413476 0,0.775132 -0.21821,1.361366 -0.218209,0.586235 -0.618803,0.90215 -0.400593,0.315915 -1.250633,0.315915 z m 0.67417,-0.56995 h 0.449446 q 0.687197,0 0.977057,-0.244264 0.293117,-0.244265 0.416878,-0.677427 0.127017,-0.433161 0.127017,-1.192009 0,-0.74582 -0.146559,-1.146414 -0.146558,-0.400593 -0.420134,-0.615546 -0.273576,-0.214952 -0.898893,-0.214952 H 69.31485 Z"
         style="-inkscape-font-specification:Ayuthaya"
         id="path17788" />
      <path
         d="m 75.698876,63.749981 v 0.56995 h -2.797641 v -5.18166 h 2.745531 v 0.521098 h -2.071361 v 1.758702 h 1.862922 v 0.517841 h -1.862922 v 1.814069 z"
         style="-inkscape-font-specification:Ayuthaya"
         id="path17790" />
      <path
         d="m 77.497245,62.118296 v 2.201635 h -0.674169 v -5.18166 h 1.384164 q 0.677426,0 0.996598,0.140045 0.322429,0.136788 0.498299,0.416878 0.175871,0.28009 0.175871,0.602519 0,0.302887 -0.117247,0.605775 -0.117247,0.302888 -0.322429,0.543895 -0.205182,0.237751 -0.592748,0.452703 l 1.501411,2.419845 h -0.804444 l -1.371136,-2.201635 z m 0,-0.521097 h 0.944489 q 0.319172,-0.172614 0.472244,-0.351741 0.156329,-0.182384 0.234494,-0.384309 0.08142,-0.205182 0.08142,-0.407107 0,-0.364768 -0.267062,-0.579721 -0.263806,-0.214952 -0.960773,-0.214952 h -0.504813 z"
         style="-inkscape-font-specification:Ayuthaya"
         id="path17792" />
      <path
         d="m 80.950098,64.209198 v -0.635087 q 0.801187,0.381052 1.455815,0.381052 0.273576,0 0.524354,-0.104219 0.250778,-0.10422 0.377795,-0.299631 0.130275,-0.198669 0.130275,-0.429905 0,-0.27032 -0.179127,-0.504813 -0.175871,-0.237751 -0.661142,-0.521097 l -0.34197,-0.195412 -0.345227,-0.198668 q -0.908663,-0.537381 -0.908663,-1.335311 0,-0.586235 0.407107,-0.983571 0.407107,-0.400594 1.266917,-0.400594 0.553666,0 1.071506,0.162843 v 0.576464 q -0.56995,-0.221466 -1.110588,-0.221466 -0.429905,0 -0.696968,0.22798 -0.267062,0.22798 -0.267062,0.547152 0,0.319172 0.205182,0.530867 0.205182,0.208439 0.521097,0.384309 l 0.260549,0.15633 0.322429,0.198668 0.276833,0.159586 q 0.850039,0.521097 0.850039,1.309256 0,0.602519 -0.439675,1.032424 -0.436419,0.429905 -1.400449,0.429905 -0.306145,0 -0.586234,-0.05211 -0.28009,-0.05211 -0.732793,-0.214952 z"
         style="-inkscape-font-specification:Ayuthaya"
         id="path17794" />
      <path
         d="m 86.578531,58.981942 q 0.882609,0 1.345082,0.745821 0.465731,0.742563 0.465731,1.99971 0,1.26366 -0.465731,2.006224 -0.462473,0.742563 -1.345082,0.742563 -0.882608,0 -1.348339,-0.742563 -0.46573,-0.742564 -0.46573,-2.006224 0,-1.257147 0.46573,-1.99971 0.465731,-0.745821 1.348339,-0.745821 z m -1.012882,3.856119 1.794528,-2.810668 q -0.172613,-0.309401 -0.371282,-0.416877 -0.198668,-0.110733 -0.410364,-0.110733 -0.560179,0 -0.850039,0.622059 -0.289861,0.618803 -0.289861,1.569805 0,0.21821 0.01303,0.468988 0.01303,0.247521 0.11399,0.677426 z m 2.015994,-2.191865 -1.778244,2.826952 q 0.143302,0.241008 0.328943,0.364768 0.188898,0.120504 0.416878,0.120504 0.635087,0 0.902149,-0.709995 0.267062,-0.709995 0.267062,-1.573062 0,-0.534124 -0.136788,-1.029167 z"
         style="-inkscape-font-specification:Ayuthaya;fill:#d03260"
         id="path17796" />
      <path
         d="m 89.669877,64.319931 h -0.62206 v -5.18166 h 0.609032 l 1.833611,3.449012 0.198668,0.514583 h 0.01628 l -0.01628,-0.514583 v -3.449012 h 0.62206 v 5.18166 h -0.62206 l -1.781501,-3.393645 -0.250778,-0.543895 0.01303,0.537381 z"
         style="-inkscape-font-specification:Ayuthaya"
         id="path17798" />
      <path
         d="m 61.525108,73.153412 h -3.136353 v -0.56995 q 0,-0.221467 0.08793,-0.472245 0.09119,-0.254034 0.345227,-0.566693 0.254034,-0.315915 0.537381,-0.605775 l 0.354997,-0.361511 q 0.107477,-0.107477 0.465731,-0.50807 0.361511,-0.40385 0.475501,-0.615546 0.117247,-0.214953 0.117247,-0.420135 0,-0.335456 -0.267062,-0.51784 -0.267063,-0.182384 -0.602519,-0.182384 -0.188898,0 -0.426648,0.0456 -0.234494,0.04234 -0.410364,0.100963 -0.17587,0.05862 -0.573207,0.23775 v -0.550408 q 0.420135,-0.198669 0.840269,-0.273576 0.423392,-0.07816 0.696968,-0.07816 0.40385,0 0.742563,0.133531 0.34197,0.130274 0.504813,0.410364 0.1661,0.276833 0.1661,0.589491 0,0.351741 -0.211696,0.719766 -0.211696,0.364768 -0.801187,0.944488 l -0.381052,0.377796 -0.319172,0.312658 q -0.302888,0.306144 -0.491786,0.596005 -0.185641,0.286603 -0.205182,0.68394 h 2.491496 z"
         style="-inkscape-font-specification:Ayuthaya"
         id="path17800" />
      <path
         d="m 64.043244,67.815423 q 0.882608,0 1.345082,0.74582 0.46573,0.742564 0.46573,1.99971 0,1.263661 -0.46573,2.006224 -0.462474,0.742564 -1.345082,0.742564 -0.882608,0 -1.348339,-0.742564 -0.465731,-0.742563 -0.465731,-2.006224 0,-1.257146 0.465731,-1.99971 0.465731,-0.74582 1.348339,-0.74582 z m -1.012883,3.856119 1.794528,-2.810668 q -0.172613,-0.309401 -0.371281,-0.416878 -0.198669,-0.110733 -0.410364,-0.110733 -0.56018,0 -0.85004,0.62206 -0.28986,0.618803 -0.28986,1.569805 0,0.218209 0.01303,0.468987 0.01303,0.247522 0.11399,0.677427 z m 2.015995,-2.191865 -1.778244,2.826952 q 0.143302,0.241007 0.328942,0.364768 0.188898,0.120504 0.416878,0.120504 0.635087,0 0.902149,-0.709995 0.267063,-0.709995 0.267063,-1.573062 0,-0.534125 -0.136788,-1.029167 z"
         style="-inkscape-font-specification:Ayuthaya;fill:#d03260"
         id="path17802" />
      <path
         d="m 69.727045,73.153412 h -3.136354 v -0.56995 q 0,-0.221467 0.08793,-0.472245 0.09119,-0.254034 0.345227,-0.566693 0.254035,-0.315915 0.537382,-0.605775 l 0.354997,-0.361511 q 0.107476,-0.107477 0.465731,-0.50807 0.361511,-0.40385 0.475501,-0.615546 0.117247,-0.214953 0.117247,-0.420135 0,-0.335456 -0.267063,-0.51784 -0.267062,-0.182384 -0.602518,-0.182384 -0.188898,0 -0.426648,0.0456 -0.234494,0.04234 -0.410364,0.100963 -0.175871,0.05862 -0.573207,0.23775 v -0.550408 q 0.420134,-0.198669 0.840269,-0.273576 0.423391,-0.07816 0.696967,-0.07816 0.403851,0 0.742564,0.133531 0.34197,0.130274 0.504813,0.410364 0.166099,0.276833 0.166099,0.589491 0,0.351741 -0.211695,0.719766 -0.211696,0.364768 -0.801187,0.944488 l -0.381053,0.377796 -0.319172,0.312658 q -0.302887,0.306144 -0.491785,0.596005 -0.185641,0.286603 -0.205182,0.68394 h 2.491496 z"
         style="-inkscape-font-specification:Ayuthaya"
         id="path17804" />
      <path
         d="m 72.088851,72.635571 v -3.99942 q -0.280089,0.221466 -0.543895,0.381052 -0.263805,0.156329 -0.723022,0.319172 v -0.560179 q 0.729536,-0.312658 1.266917,-0.804444 h 0.62206 v 4.663819 h 1.247376 v 0.517841 h -3.136353 v -0.517841 z"
         style="-inkscape-font-specification:Ayuthaya"
         id="path17806" />
    </g>
  </g>
</svg>
